<svg width="217" height="50" viewBox="0 0 217 50" fill="none" xmlns="http://www.w3.org/2000/svg">
<path d="M201.038 7V43H195.413V7H201.038ZM200.053 29.3828L198.225 29.3594C198.241 27.6094 198.483 25.9922 198.952 24.5078C199.436 23.0234 200.108 21.7344 200.967 20.6406C201.842 19.5312 202.889 18.6797 204.108 18.0859C205.327 17.4766 206.678 17.1719 208.163 17.1719C209.413 17.1719 210.538 17.3438 211.538 17.6875C212.553 18.0312 213.428 18.5859 214.163 19.3516C214.897 20.1016 215.452 21.0859 215.827 22.3047C216.217 23.5078 216.413 24.9766 216.413 26.7109V43H210.741V26.6641C210.741 25.4453 210.561 24.4766 210.202 23.7578C209.858 23.0391 209.35 22.5234 208.678 22.2109C208.006 21.8828 207.186 21.7188 206.217 21.7188C205.202 21.7188 204.303 21.9219 203.522 22.3281C202.756 22.7344 202.116 23.2891 201.6 23.9922C201.084 24.6953 200.694 25.5078 200.428 26.4297C200.178 27.3516 200.053 28.3359 200.053 29.3828Z" fill="#1D1D1D"/>
<path d="M181.221 38.9688C182.143 38.9688 182.971 38.7891 183.705 38.4297C184.455 38.0547 185.057 37.5391 185.51 36.8828C185.979 36.2266 186.236 35.4688 186.283 34.6094H191.604C191.572 36.25 191.088 37.7422 190.15 39.0859C189.213 40.4297 187.971 41.5 186.424 42.2969C184.877 43.0781 183.166 43.4688 181.291 43.4688C179.354 43.4688 177.666 43.1406 176.229 42.4844C174.791 41.8125 173.596 40.8906 172.643 39.7188C171.689 38.5469 170.971 37.1953 170.486 35.6641C170.018 34.1328 169.783 32.4922 169.783 30.7422V29.9219C169.783 28.1719 170.018 26.5312 170.486 25C170.971 23.4531 171.689 22.0938 172.643 20.9219C173.596 19.75 174.791 18.8359 176.229 18.1797C177.666 17.5078 179.346 17.1719 181.268 17.1719C183.299 17.1719 185.08 17.5781 186.611 18.3906C188.143 19.1875 189.346 20.3047 190.221 21.7422C191.111 23.1641 191.572 24.8203 191.604 26.7109H186.283C186.236 25.7734 186.002 24.9297 185.58 24.1797C185.174 23.4141 184.596 22.8047 183.846 22.3516C183.111 21.8984 182.229 21.6719 181.197 21.6719C180.057 21.6719 179.111 21.9062 178.361 22.375C177.611 22.8281 177.025 23.4531 176.604 24.25C176.182 25.0312 175.877 25.9141 175.689 26.8984C175.518 27.8672 175.432 28.875 175.432 29.9219V30.7422C175.432 31.7891 175.518 32.8047 175.689 33.7891C175.861 34.7734 176.158 35.6562 176.58 36.4375C177.018 37.2031 177.611 37.8203 178.361 38.2891C179.111 38.7422 180.064 38.9688 181.221 38.9688Z" fill="#1D1D1D"/>
<path d="M156.787 43.4688C154.912 43.4688 153.216 43.1641 151.701 42.5547C150.201 41.9297 148.919 41.0625 147.857 39.9531C146.81 38.8438 146.005 37.5391 145.443 36.0391C144.88 34.5391 144.599 32.9219 144.599 31.1875V30.25C144.599 28.2656 144.888 26.4688 145.466 24.8594C146.044 23.25 146.849 21.875 147.88 20.7344C148.912 19.5781 150.13 18.6953 151.537 18.0859C152.943 17.4766 154.466 17.1719 156.107 17.1719C157.919 17.1719 159.505 17.4766 160.865 18.0859C162.224 18.6953 163.349 19.5547 164.24 20.6641C165.146 21.7578 165.818 23.0625 166.255 24.5781C166.708 26.0938 166.935 27.7656 166.935 29.5938V32.0078H147.341V27.9531H161.357V27.5078C161.326 26.4922 161.123 25.5391 160.748 24.6484C160.388 23.7578 159.833 23.0391 159.083 22.4922C158.333 21.9453 157.333 21.6719 156.083 21.6719C155.146 21.6719 154.31 21.875 153.576 22.2812C152.857 22.6719 152.255 23.2422 151.771 23.9922C151.287 24.7422 150.912 25.6484 150.646 26.7109C150.396 27.7578 150.271 28.9375 150.271 30.25V31.1875C150.271 32.2969 150.419 33.3281 150.716 34.2812C151.029 35.2188 151.482 36.0391 152.076 36.7422C152.669 37.4453 153.388 38 154.232 38.4062C155.076 38.7969 156.037 38.9922 157.115 38.9922C158.474 38.9922 159.685 38.7188 160.748 38.1719C161.81 37.625 162.732 36.8516 163.513 35.8516L166.49 38.7344C165.943 39.5312 165.232 40.2969 164.357 41.0312C163.482 41.75 162.412 42.3359 161.146 42.7891C159.896 43.2422 158.443 43.4688 156.787 43.4688Z" fill="#1D1D1D"/>
<path d="M141.728 17.6406V21.7656H127.431V17.6406H141.728ZM131.556 11.4297H137.204V35.9922C137.204 36.7734 137.313 37.375 137.532 37.7969C137.767 38.2031 138.087 38.4766 138.493 38.6172C138.899 38.7578 139.376 38.8281 139.923 38.8281C140.313 38.8281 140.688 38.8047 141.048 38.7578C141.407 38.7109 141.696 38.6641 141.915 38.6172L141.938 42.9297C141.47 43.0703 140.923 43.1953 140.298 43.3047C139.688 43.4141 138.985 43.4688 138.188 43.4688C136.892 43.4688 135.743 43.2422 134.743 42.7891C133.743 42.3203 132.962 41.5625 132.399 40.5156C131.837 39.4688 131.556 38.0781 131.556 36.3438V11.4297Z" fill="#1D1D1D"/>
<path d="M102.012 30.5781V30.0859C102.012 28.2266 102.278 26.5156 102.809 24.9531C103.34 23.375 104.122 22.0078 105.153 20.8516C106.184 19.6953 107.45 18.7969 108.95 18.1562C110.45 17.5 112.168 17.1719 114.106 17.1719C116.075 17.1719 117.809 17.5 119.309 18.1562C120.825 18.7969 122.098 19.6953 123.129 20.8516C124.161 22.0078 124.942 23.375 125.473 24.9531C126.004 26.5156 126.27 28.2266 126.27 30.0859V30.5781C126.27 32.4219 126.004 34.1328 125.473 35.7109C124.942 37.2734 124.161 38.6406 123.129 39.8125C122.098 40.9688 120.833 41.8672 119.333 42.5078C117.833 43.1484 116.106 43.4688 114.153 43.4688C112.215 43.4688 110.489 43.1484 108.973 42.5078C107.458 41.8672 106.184 40.9688 105.153 39.8125C104.122 38.6406 103.34 37.2734 102.809 35.7109C102.278 34.1328 102.012 32.4219 102.012 30.5781ZM109.348 30.0859V30.5781C109.348 31.5781 109.426 32.5156 109.583 33.3906C109.754 34.2656 110.028 35.0312 110.403 35.6875C110.778 36.3438 111.27 36.8594 111.879 37.2344C112.504 37.5938 113.262 37.7734 114.153 37.7734C115.043 37.7734 115.793 37.5938 116.403 37.2344C117.012 36.8594 117.504 36.3438 117.879 35.6875C118.254 35.0312 118.52 34.2656 118.676 33.3906C118.848 32.5156 118.934 31.5781 118.934 30.5781V30.0859C118.934 29.1016 118.848 28.1797 118.676 27.3203C118.52 26.4453 118.254 25.6719 117.879 25C117.504 24.3281 117.004 23.8047 116.379 23.4297C115.77 23.0547 115.012 22.8672 114.106 22.8672C113.231 22.8672 112.489 23.0547 111.879 23.4297C111.27 23.8047 110.778 24.3281 110.403 25C110.028 25.6719 109.754 26.4453 109.583 27.3203C109.426 28.1797 109.348 29.1016 109.348 30.0859Z" fill="#1D1D1D"/>
<path d="M70.875 38.7344L77.6719 8.875H81.5859L83.1328 12.5781L75.8906 43H71.6016L70.875 38.7344ZM68.2266 8.875L73.9219 38.875L72.9375 43H68.0625L60.6562 8.875H68.2266ZM87.9844 38.7109L93.6094 8.875H101.156L93.75 43H88.9219L87.9844 38.7109ZM84.1406 8.875L91.0312 38.8984L90.2344 43H85.9688L78.6094 12.5547L80.2266 8.875H84.1406Z" fill="#1D1D1D"/>
<path d="M45.553 20.0278C44.9054 19.9365 44.2788 19.9716 43.6924 20.1101C43.112 20.247 42.5035 20.0474 42.0816 19.626L40.186 17.7303C39.7681 17.3124 39.5705 16.7085 39.7069 16.1331C39.8449 15.5527 39.881 14.9337 39.7942 14.2936C39.4962 12.101 37.7285 10.3332 35.5358 10.0357C34.8957 9.94894 34.2767 9.98556 33.6968 10.123C33.1214 10.2595 32.518 10.0623 32.1001 9.64444L30.2922 7.83655C29.8653 7.40966 29.6677 6.79064 29.8157 6.20573C29.9406 5.71061 29.9922 5.18692 29.9541 4.64415C29.7775 2.12494 27.6712 0.0892953 25.1474 0.00301401C22.3092 -0.0943032 19.9781 2.17761 19.9781 4.99429C19.9781 5.37654 20.0217 5.74875 20.1035 6.10592C20.2369 6.68731 20.0784 7.29629 19.6565 7.71817L17.7303 9.64444C17.3124 10.0623 16.7084 10.2595 16.1336 10.123C15.5537 9.98506 14.9342 9.94843 14.2946 10.0357C12.1019 10.3332 10.3342 12.101 10.0362 14.2936C9.94941 14.9337 9.98602 15.5527 10.1235 16.1331C10.2599 16.7085 10.0628 17.3124 9.64441 17.7303L7.74874 19.626C7.32736 20.0474 6.71838 20.247 6.13799 20.1101C5.55157 19.9716 4.92502 19.9365 4.27741 20.0278C2.07072 20.3393 0.304967 22.1372 0.037595 24.3499C-0.354182 27.596 2.3717 30.3208 5.61829 29.9281C7.81445 29.6622 9.60529 27.9195 9.93235 25.7314C10.0272 25.0953 10.0006 24.4793 9.87315 23.8999C9.74624 23.3235 9.9479 22.7236 10.3648 22.3062L12.3517 20.3192C12.7676 19.9034 13.366 19.7439 13.9414 19.8668C14.3974 19.9641 14.876 19.9992 15.3691 19.9616C17.7945 19.7775 19.7785 17.7935 19.9631 15.3681C20.0007 14.8745 19.9656 14.3954 19.8677 13.9395C19.7448 13.3641 19.9044 12.7656 20.3202 12.3498L22.3398 10.3302C22.7572 9.91282 23.3571 9.75581 23.9345 9.87821C24.2691 9.94944 24.6157 9.98707 24.9719 9.98707C25.2994 9.98707 25.619 9.95446 25.928 9.89326C26.5019 9.77939 27.0958 9.93539 27.5092 10.3492L29.5097 12.3498C29.9255 12.7656 30.085 13.3641 29.9621 13.9395C29.8648 14.3954 29.8297 14.8745 29.8668 15.3681C30.0514 17.7935 32.0354 19.777 34.4608 19.9616C34.9539 19.9992 35.433 19.9641 35.8885 19.8668C36.4638 19.7439 37.0623 19.9034 37.4781 20.3192L39.4651 22.3062C39.8825 22.7236 40.0836 23.3235 39.9572 23.8999C39.8298 24.4788 39.8027 25.0953 39.898 25.7314C40.2246 27.9195 42.0154 29.6622 44.2116 29.9281C47.4582 30.3213 50.1836 27.5965 49.7923 24.3499C49.5254 22.1372 47.7592 20.3393 45.553 20.0278Z" fill="#3C72FC"/>
<path d="M19.7505 45.0058C19.7505 42.2473 21.9868 40.0115 24.7448 40.0115C27.5033 40.0115 29.7391 42.2478 29.7391 45.0058C29.7391 47.7642 27.5033 50 24.7448 50C21.9868 50 19.7505 47.7637 19.7505 45.0058Z" fill="#3C72FC"/>
<path d="M35.3367 30.073C34.6896 29.9817 34.063 30.0169 33.4766 30.1553C32.8962 30.2923 32.2877 30.0926 31.8664 29.6712L30.0655 27.8704C29.6386 27.4435 29.4409 26.8244 29.5889 26.2395C29.7138 25.7444 29.7655 25.2207 29.7274 24.6779C29.5508 22.1587 27.4444 20.1231 24.9202 20.0368C22.0819 19.9395 19.7509 22.2114 19.7509 25.0281C19.7509 25.4103 19.7945 25.7826 19.8763 26.1402C20.0097 26.7216 19.8512 27.3301 19.4293 27.7525L17.51 29.6717C17.0887 30.0931 16.4797 30.2928 15.8998 30.1558C15.3134 30.0174 14.6873 29.9822 14.0397 30.0735C11.833 30.3851 10.0668 32.1824 9.7994 34.3951C9.40713 37.6417 12.133 40.3671 15.3801 39.9738C17.5763 39.7079 19.3671 37.9648 19.6937 35.7766C19.7885 35.1406 19.7614 34.5246 19.6345 33.9457C19.5076 33.3698 19.7092 32.7693 20.1261 32.3525L22.1126 30.366C22.5299 29.9486 23.1299 29.7916 23.7072 29.914C24.0418 29.9853 24.389 30.0229 24.7446 30.0229C25.0717 30.0229 25.3917 29.9903 25.7007 29.9291C26.2746 29.8157 26.8686 29.9712 27.2824 30.3851L29.2498 32.3525C29.6672 32.7698 29.8683 33.3698 29.7419 33.9462C29.6145 34.5251 29.5874 35.1416 29.6827 35.7776C30.0093 37.9658 31.8006 39.7085 33.9968 39.9743C37.2434 40.3676 39.9688 37.6427 39.577 34.3961C39.3096 32.1829 37.5434 30.3846 35.3367 30.073Z" fill="#3C72FC"/>
</svg>
